<?xml version="1.0" encoding="UTF-8"?>
<svg version="1.1" xmlns="http://www.w3.org/2000/svg" width="301" height="258">
<path d="M0 0 C1.22259251 -0.00668677 1.22259251 -0.00668677 2.46988386 -0.01350862 C3.35984684 -0.01332426 4.24980982 -0.01313989 5.16674137 -0.01294994 C6.59143627 -0.01846498 6.59143627 -0.01846498 8.04491287 -0.02409142 C11.23592353 -0.03512742 14.42690162 -0.03897202 17.6179285 -0.04278088 C19.90281624 -0.04904573 22.18770295 -0.05569255 24.47258854 -0.0626936 C31.98530206 -0.08373875 39.49801579 -0.09409836 47.01075077 -0.10406017 C49.59835222 -0.10810796 52.18595357 -0.11222489 54.7735548 -0.11641026 C65.540387 -0.13328148 76.30721549 -0.14791462 87.07405853 -0.155159 C89.86700218 -0.15706874 92.65994582 -0.15898909 95.45288944 -0.16094494 C96.49408716 -0.16167055 96.49408716 -0.16167055 97.55631918 -0.16241082 C108.78615668 -0.17070075 120.01588729 -0.19601976 131.24567818 -0.22852562 C142.78895124 -0.26166485 154.33215406 -0.27928181 165.87547642 -0.28280324 C172.35091608 -0.28515063 178.82618689 -0.29407053 185.30158138 -0.31926441 C191.3993006 -0.34260478 197.49674054 -0.3467542 203.59449291 -0.33650303 C205.82566223 -0.33600897 208.05684556 -0.3422909 210.28797245 -0.35605907 C226.0267757 -0.44770255 239.83306748 -0.35989066 251.88965702 11.13422108 C252.45297733 11.65758045 253.01629765 12.18093983 253.59668827 12.72015858 C262.00868445 21.45159765 264.04963862 33.21129394 264.02336979 44.894063 C264.02563535 45.64436195 264.0279009 46.3946609 264.03023511 47.16769618 C264.03653214 49.6654242 264.03574853 52.16309736 264.03492069 54.66083241 C264.03791487 56.45842528 264.04131799 58.2560175 264.0450983 60.05360889 C264.05391618 64.92561471 264.05627549 69.79760296 264.05691409 74.66961598 C264.05762584 77.71656778 264.05976254 80.76351513 264.06241131 83.81046581 C264.07165738 94.44906745 264.07574712 105.08765657 264.07495975 115.72626209 C264.07435915 125.628825 264.08490958 135.53133341 264.10070342 145.43388253 C264.11379675 153.94791253 264.1191429 162.46192475 264.11850435 170.97596473 C264.11824989 176.05560517 264.12107225 181.13519716 264.1316824 186.21482754 C264.14139357 190.9943595 264.14142189 195.77379696 264.13416576 200.55333233 C264.13312368 202.30198906 264.13546037 204.05065177 264.14152622 205.79929829 C264.19499527 222.28831295 263.01964204 234.36491144 251.38965702 246.79828358 C243.07930452 254.56326919 234.18526637 257.39097659 223.0698328 257.54169178 C222.17901382 257.56059908 221.28819485 257.57950638 220.37038136 257.59898663 C217.31700402 257.65940094 214.26363441 257.70414336 211.20996952 257.74750233 C210.11584877 257.76581923 209.02172802 257.78413612 207.8944521 257.80300808 C170.93021193 258.41821578 133.95438279 258.32164148 96.98628545 258.3193332 C88.70534289 258.31968365 80.42444197 258.33137587 72.14351261 258.34526747 C64.0532002 258.35834585 55.9629064 258.36370818 47.87258351 258.3630684 C43.08424627 258.36281521 38.29596059 258.36557247 33.50763416 258.37624645 C29.04350238 258.38594245 24.57947182 258.38599651 20.11533642 258.37872982 C18.48758323 258.37768866 16.85982361 258.38001881 15.23208141 258.38609028 C-1.24693916 258.4435714 -14.30241039 256.59305834 -26.77440548 244.86859608 C-34.36632525 235.98173347 -37.26053592 225.92126691 -37.257514 214.36296558 C-37.26119069 213.59930355 -37.26486738 212.83564151 -37.26865548 212.0488382 C-37.27963454 209.49973688 -37.28352631 206.95067642 -37.28734493 204.40155506 C-37.29361401 202.56956829 -37.3002612 200.73758278 -37.30725765 198.90559864 C-37.32824976 192.89717963 -37.33865636 186.8887605 -37.34862423 180.88031483 C-37.35267377 178.80719013 -37.35679075 176.73406556 -37.36097431 174.66094112 C-37.38001631 164.91820758 -37.39424872 155.17548156 -37.40258628 145.432733 C-37.41235154 134.20876349 -37.43865673 122.98499157 -37.47908717 111.76109165 C-37.50930884 103.07124114 -37.52406094 94.38144708 -37.52736729 85.69154507 C-37.52971107 80.5083253 -37.53858375 75.32531685 -37.56382847 70.14215374 C-37.58721994 65.26077745 -37.59129814 60.37974997 -37.58106709 55.49833202 C-37.58057428 53.71544956 -37.58681861 51.93254928 -37.60062313 50.14972019 C-37.70578393 35.75268167 -36.54138276 23.05248564 -26.11034298 12.13422108 C-25.57538204 11.57090076 -25.0404211 11.00758045 -24.48924923 10.42718983 C-18.09009682 4.36564258 -8.88869386 0.02263807 0 0 Z " fill="#5FB6A3" transform="translate(37.11034297943115,-0.13422107696533203)"/>
<path d="M0 0 C1.10095505 -0.00788544 1.10095505 -0.00788544 2.22415161 -0.01593018 C4.6405389 -0.02909033 7.05626273 -0.0204066 9.47265625 -0.01025391 C11.15747198 -0.0122758 12.84228686 -0.01518819 14.52709961 -0.01895142 C18.05428417 -0.02336936 21.58124046 -0.01696087 25.10839844 -0.00292969 C29.62446768 0.01416199 34.14000201 0.00431795 38.65605164 -0.01364708 C42.13395196 -0.0244993 45.61172595 -0.021032 49.08963013 -0.0132637 C50.75456811 -0.01126567 52.41951765 -0.01370703 54.08444214 -0.02070236 C56.4133737 -0.02834067 58.74144485 -0.01668019 61.0703125 0 C61.75513702 -0.00607269 62.43996155 -0.01214539 63.14553833 -0.0184021 C68.8279355 0.05681044 71.6724512 1.72301513 75.81530762 5.42652893 C78.36597636 9.81889221 78.09390557 13.77896367 78.05273438 18.7746582 C78.05974365 19.8191362 78.06675293 20.8636142 78.07397461 21.93974304 C78.09157065 25.39027543 78.07992465 28.83998669 78.06640625 32.29052734 C78.06910089 34.69039568 78.07298307 37.09026296 78.07800293 39.49012756 C78.08390036 44.51964717 78.07532751 49.54888258 78.05664062 54.57836914 C78.0338637 61.02251051 78.04696533 67.46598505 78.07093048 73.91010189 C78.08539204 78.86610427 78.0807805 83.82194885 78.07041931 88.77795601 C78.0677524 91.15379477 78.07102049 93.5296479 78.08033752 95.90546989 C78.09050713 99.22813671 78.07499423 102.54972767 78.05273438 105.87231445 C78.0608313 106.85276733 78.06892822 107.83322021 78.07727051 108.84338379 C78.00738057 114.4804756 77.53302246 118.07015582 73.53515625 122.38818359 C69.05238418 125.36413595 65.45861154 125.76649822 60.14038086 125.77636719 C59.42577194 125.78162415 58.71116302 125.7868811 57.97489929 125.79229736 C55.6288727 125.80542776 53.28353267 125.79678546 50.9375 125.78662109 C49.29895396 125.78864362 47.66040881 125.79155655 46.02186584 125.7953186 C42.59481195 125.79973232 39.16799327 125.79334092 35.7409668 125.77929688 C31.35383641 125.76219186 26.96725613 125.77206029 22.58014584 125.79001427 C19.19918184 125.80086641 15.8183478 125.79739946 12.43737984 125.78963089 C10.81989031 125.78763353 9.20238888 125.79007182 7.58491325 125.79706955 C5.32313744 125.8047093 3.06224715 125.79304616 0.80053711 125.77636719 C-0.48486465 125.77398041 -1.77026642 125.77159363 -3.09461975 125.76913452 C-6.71522527 125.35988189 -8.59923168 124.60169359 -11.46484375 122.38818359 C-12.77734375 119.70068359 -12.77734375 119.70068359 -13.46484375 117.38818359 C-14.12484375 117.38818359 -14.78484375 117.38818359 -15.46484375 117.38818359 C-15.46484375 105.17818359 -15.46484375 92.96818359 -15.46484375 80.38818359 C-13.15484375 80.38818359 -10.84484375 80.38818359 -8.46484375 80.38818359 C-8.46484375 78.73818359 -8.46484375 77.08818359 -8.46484375 75.38818359 C-9.12484375 75.05818359 -9.78484375 74.72818359 -10.46484375 74.38818359 C-8.34480378 72.54882497 -6.21927148 70.71661626 -4.08984375 68.88818359 C-3.4865625 68.36353516 -2.88328125 67.83888672 -2.26171875 67.29833984 C2.30859375 63.38818359 2.30859375 63.38818359 4.53515625 63.38818359 C2.35319458 58.88788764 -0.76395821 56.18703096 -4.52734375 53.03662109 C-6.46484375 51.38818359 -6.46484375 51.38818359 -8.046875 49.72021484 C-10.00523137 47.88054674 -11.85455301 47.74092559 -14.46484375 47.38818359 C-13.47484375 46.72818359 -12.48484375 46.06818359 -11.46484375 45.38818359 C-11.13484375 44.39818359 -10.80484375 43.40818359 -10.46484375 42.38818359 C-12.11484375 42.38818359 -13.76484375 42.38818359 -15.46484375 42.38818359 C-15.53919597 37.63764848 -15.59354066 32.88745472 -15.62963867 28.13647461 C-15.64469251 26.52150571 -15.66514023 24.90657746 -15.69116211 23.29174805 C-15.72769661 20.96571804 -15.7446039 18.64023018 -15.7578125 16.31396484 C-15.77329636 15.59606277 -15.78878021 14.87816071 -15.80473328 14.13850403 C-15.80621535 9.68867898 -15.30435248 6.85749219 -12.46484375 3.38818359 C-8.40061726 0.33327195 -4.93293932 -0.04374292 0 0 Z " fill="#73BB5E" transform="translate(178.46484375,64.61181640625)"/>
<path d="M0 0 C2.82177899 2.71068533 3.47667921 4.23872783 3.71533203 8.16674805 C3.71501586 9.71667019 3.70374606 11.26661509 3.68359375 12.81640625 C3.68076385 13.63341507 3.67793396 14.45042389 3.67501831 15.29219055 C3.66382666 17.90067209 3.63872415 20.5088098 3.61328125 23.1171875 C3.60325013 24.88606275 3.59412451 26.65494338 3.5859375 28.42382812 C3.56389067 32.75924699 3.52936795 37.09440895 3.48828125 41.4296875 C1.50828125 41.4296875 -0.47171875 41.4296875 -2.51171875 41.4296875 C-2.51582764 40.43114746 -2.51993652 39.43260742 -2.52416992 38.40380859 C-2.54603198 34.67965914 -2.60039276 30.95655568 -2.66430664 27.23291016 C-2.68742546 25.62493964 -2.70186799 24.01681902 -2.70727539 22.40869141 C-2.71661071 20.08922451 -2.75769334 17.77209836 -2.8046875 15.453125 C-2.80075485 14.74038422 -2.7968222 14.02764343 -2.79277039 13.29330444 C-2.9572459 7.59741742 -4.56713877 5.2571622 -8.51171875 1.4296875 C-11.15580463 0.22235544 -13.38038424 -0.62892062 -16.13671875 -1.3828125 C-16.78511719 -1.58583984 -17.43351562 -1.78886719 -18.1015625 -1.99804688 C-28.24234145 -4.98120806 -38.87356497 -4.75684148 -49.35424805 -4.75561523 C-51.44275195 -4.75780572 -53.53072918 -4.77604995 -55.61914062 -4.79492188 C-65.80071809 -4.83833996 -75.84686204 -4.31692162 -85.44921875 -0.6328125 C-86.30386719 -0.31441406 -87.15851563 0.00398438 -88.0390625 0.33203125 C-93.11288752 2.42934208 -93.11288752 2.42934208 -96.51171875 6.4296875 C-96.79327273 10.79947662 -96.82536488 15.17290637 -96.86181641 19.55053711 C-96.87835879 21.00642908 -96.90562711 22.4622404 -96.94384766 23.91772461 C-96.99879998 26.02239873 -97.02051491 28.12517257 -97.03515625 30.23046875 C-97.05497559 31.49028564 -97.07479492 32.75010254 -97.09521484 34.0480957 C-96.35465309 38.33994542 -94.85620471 39.73266912 -91.51171875 42.4296875 C-86.70796586 44.90503311 -81.92958056 46.15027616 -76.63671875 47.0546875 C-75.65251953 47.23644531 -75.65251953 47.23644531 -74.6484375 47.421875 C-64.71321944 49.20362951 -55.04415678 49.58538675 -44.94921875 49.5546875 C-43.03592773 49.56048828 -43.03592773 49.56048828 -41.08398438 49.56640625 C-34.80025929 49.55988448 -28.72128126 49.41632669 -22.51171875 48.4296875 C-22.51171875 50.4096875 -22.51171875 52.3896875 -22.51171875 54.4296875 C-37.17199731 62.65664912 -64.84617071 58.05085231 -80.51171875 54.4296875 C-86.48121996 52.69112474 -91.58235339 50.19748734 -96.51171875 46.4296875 C-96.74503679 50.30366439 -96.88645005 54.17583174 -97.01171875 58.0546875 C-97.07875 59.14910156 -97.14578125 60.24351562 -97.21484375 61.37109375 C-97.45300096 67.27938067 -97.45300096 67.27938067 -94.99194336 72.44311523 C-90.54941229 75.99025245 -85.52003225 77.81958727 -80.07421875 79.2421875 C-79.37490234 79.44521484 -78.67558594 79.64824219 -77.95507812 79.85742188 C-57.30033004 85.60433525 -29.17414277 85.37269465 -9.88671875 75.3671875 C-6.76968506 73.51368324 -5.5648349 72.50936172 -3.51171875 69.4296875 C-3.12671984 67.77419219 -2.7837874 66.1074442 -2.51171875 64.4296875 C-0.53171875 64.4296875 1.44828125 64.4296875 3.48828125 64.4296875 C3.48828125 77.6296875 3.48828125 90.8296875 3.48828125 104.4296875 C2.82828125 104.4296875 2.16828125 104.4296875 1.48828125 104.4296875 C1.24851562 105.19152344 1.00875 105.95335937 0.76171875 106.73828125 C-1.82821124 112.21209033 -8.04112455 114.41023532 -13.41796875 116.62890625 C-24.85220396 120.67602371 -36.19278527 121.78406776 -48.26489258 121.74536133 C-50.31190634 121.74220648 -52.35746072 121.76574604 -54.40429688 121.79101562 C-69.06000148 121.86099144 -87.95577487 120.20779386 -99.51171875 110.4296875 C-104.09186547 104.42811593 -103.67126077 97.35919957 -103.72045898 90.13891602 C-103.73024277 89.2226947 -103.74002655 88.30647339 -103.75010681 87.36248779 C-103.77990952 84.34453765 -103.80139827 81.32663107 -103.8203125 78.30859375 C-103.82688433 77.27473982 -103.83345615 76.24088589 -103.84022713 75.17570305 C-103.87274659 69.70821372 -103.89722131 64.24074335 -103.91674805 58.77319336 C-103.9345888 54.2540258 -103.9694646 49.73547894 -104.01928711 45.21655273 C-104.07947383 39.75011054 -104.11022017 34.28424546 -104.11992073 28.81748772 C-104.12847395 26.73826304 -104.1472887 24.65905375 -104.17666435 22.580019 C-104.2155942 19.66927907 -104.21661221 16.76079215 -104.20874023 13.84985352 C-104.22874084 12.99612656 -104.24874146 12.1423996 -104.26934814 11.26280212 C-104.20212592 5.712726 -102.92202786 2.84387829 -99.09344578 -1.18560886 C-76.77104953 -20.72747842 -22.29464388 -17.66385061 0 0 Z " fill="#F0F4F6" transform="translate(149.51171875,72.5703125)"/>
<path d="M0 0 C0.75176514 0.35304199 1.50353027 0.70608398 2.27807617 1.06982422 C15.68231382 7.33325666 27.74288776 10.3504762 42.58178711 10.26074219 C44.66615499 10.25010889 46.74964412 10.26063957 48.83398438 10.2734375 C63.46419911 10.28869579 79.05360181 9.56932169 91.40625 0.98828125 C93 0 93 0 95 0 C95.1164862 3.72890255 95.18734576 7.45733514 95.25 11.1875 C95.28351563 12.24259766 95.31703125 13.29769531 95.3515625 14.38476562 C95.45010119 22.19395672 95.45010119 22.19395672 93.30078125 26.04296875 C77.62914703 39.37317035 52.31074629 38.49568792 33 37 C28.724417 36.45542376 24.52770185 35.70859117 20.3125 34.8125 C19.38727539 34.6165625 18.46205078 34.420625 17.50878906 34.21875 C10.53915998 32.54130513 4.08879628 30.13319442 0 24 C-0.22705078 21.45629883 -0.22705078 21.45629883 -0.1953125 18.45703125 C-0.18886719 17.38388672 -0.18242188 16.31074219 -0.17578125 15.20507812 C-0.15064453 13.52575195 -0.15064453 13.52575195 -0.125 11.8125 C-0.11597656 10.68134766 -0.10695312 9.55019531 -0.09765625 8.38476562 C-0.07406862 5.58963172 -0.041153 2.79492155 0 0 Z " fill="#1E3962" transform="translate(52,151)"/>
<path d="M0 0 C2.11709818 0.00534253 4.23398261 0.00003652 6.35107422 -0.00634766 C36.46937297 -0.02707222 36.46937297 -0.02707222 47.64404297 7.80615234 C50.25472064 10.55712344 51.15294622 12.42706887 51.69091797 16.19287109 C49.36527187 20.94527834 45.99320372 22.94230355 41.25341797 25.13037109 C29.51564299 29.09175579 17.63988386 30.33528637 5.3046875 30.37060547 C3.28586076 30.38021664 1.26809645 30.41126125 -0.75048828 30.44287109 C-14.26716619 30.49572223 -31.36175003 29.34588979 -42.04345703 20.15380859 C-43.74658203 18.13037109 -43.74658203 18.13037109 -44.30908203 15.19287109 C-43.53324763 10.96888381 -42.1317558 9.75560789 -38.74658203 7.13037109 C-26.39729595 0.45944833 -13.72513978 -0.04114061 0 0 Z " fill="#18355E" transform="translate(95.74658203125,66.86962890625)"/>
<path d="M0 0 C1.10095505 -0.00788544 1.10095505 -0.00788544 2.22415161 -0.01593018 C4.6405389 -0.02909033 7.05626273 -0.0204066 9.47265625 -0.01025391 C11.15747198 -0.0122758 12.84228686 -0.01518819 14.52709961 -0.01895142 C18.05428417 -0.02336936 21.58124046 -0.01696087 25.10839844 -0.00292969 C29.62446768 0.01416199 34.14000201 0.00431795 38.65605164 -0.01364708 C42.13395196 -0.0244993 45.61172595 -0.021032 49.08963013 -0.0132637 C50.75456811 -0.01126567 52.41951765 -0.01370703 54.08444214 -0.02070236 C56.4133737 -0.02834067 58.74144485 -0.01668019 61.0703125 0 C61.75513702 -0.00607269 62.43996155 -0.01214539 63.14553833 -0.0184021 C68.8279355 0.05681044 71.6724512 1.72301513 75.81530762 5.42652893 C78.36597636 9.81889221 78.09390557 13.77896367 78.05273438 18.7746582 C78.05974365 19.8191362 78.06675293 20.8636142 78.07397461 21.93974304 C78.09157065 25.39027543 78.07992465 28.83998669 78.06640625 32.29052734 C78.06910089 34.69039568 78.07298307 37.09026296 78.07800293 39.49012756 C78.08390036 44.51964717 78.07532751 49.54888258 78.05664062 54.57836914 C78.0338637 61.02251051 78.04696533 67.46598505 78.07093048 73.91010189 C78.08539204 78.86610427 78.0807805 83.82194885 78.07041931 88.77795601 C78.0677524 91.15379477 78.07102049 93.5296479 78.08033752 95.90546989 C78.09050713 99.22813671 78.07499423 102.54972767 78.05273438 105.87231445 C78.0608313 106.85276733 78.06892822 107.83322021 78.07727051 108.84338379 C78.00738057 114.4804756 77.53302246 118.07015582 73.53515625 122.38818359 C69.05238418 125.36413595 65.45861154 125.76649822 60.14038086 125.77636719 C59.42577194 125.78162415 58.71116302 125.7868811 57.97489929 125.79229736 C55.6288727 125.80542776 53.28353267 125.79678546 50.9375 125.78662109 C49.29895396 125.78864362 47.66040881 125.79155655 46.02186584 125.7953186 C42.59481195 125.79973232 39.16799327 125.79334092 35.7409668 125.77929688 C31.35383641 125.76219186 26.96725613 125.77206029 22.58014584 125.79001427 C19.19918184 125.80086641 15.8183478 125.79739946 12.43737984 125.78963089 C10.81989031 125.78763353 9.20238888 125.79007182 7.58491325 125.79706955 C5.32313744 125.8047093 3.06224715 125.79304616 0.80053711 125.77636719 C-0.48486465 125.77398041 -1.77026642 125.77159363 -3.09461975 125.76913452 C-6.71522527 125.35988189 -8.59923168 124.60169359 -11.46484375 122.38818359 C-12.77734375 119.70068359 -12.77734375 119.70068359 -13.46484375 117.38818359 C-14.12484375 117.38818359 -14.78484375 117.38818359 -15.46484375 117.38818359 C-15.46484375 105.17818359 -15.46484375 92.96818359 -15.46484375 80.38818359 C-13.15484375 80.38818359 -10.84484375 80.38818359 -8.46484375 80.38818359 C-8.44296997 81.95499878 -8.44296997 81.95499878 -8.4206543 83.5534668 C-8.36268824 87.42832705 -8.28545601 91.30260511 -8.20239258 95.17700195 C-8.16913512 96.85398918 -8.14110567 98.53108856 -8.1184082 100.20825195 C-8.08487638 102.61897585 -8.03256397 105.02867121 -7.9765625 107.43896484 C-7.97017258 108.18906326 -7.96378265 108.93916168 -7.9571991 109.71199036 C-7.8860497 113.59737538 -7.8860497 113.59737538 -6.36248779 117.08502197 C-3.50094071 119.05012093 -1.11493556 118.77725779 2.32983398 118.79223633 C3.35960861 118.8025312 3.35960861 118.8025312 4.41018677 118.81303406 C6.67991816 118.8313377 8.94896063 118.82745966 11.21875 118.82177734 C12.79671962 118.82633766 14.37468725 118.83164278 15.95265198 118.83766174 C19.26059027 118.84659996 22.56828723 118.84416202 25.8762207 118.83422852 C30.11456672 118.82274111 34.35207932 118.84294238 38.59031582 118.87214565 C41.84944447 118.89049647 45.10837301 118.89021744 48.36754036 118.88450813 C49.93004589 118.88435476 51.49256485 118.89041225 53.05502129 118.90279961 C55.24090629 118.91768672 57.42524715 118.90705164 59.61108398 118.88989258 C61.47614845 118.88964333 61.47614845 118.88964333 63.37889099 118.88938904 C66.53410285 118.58498923 66.53410285 118.58498923 68.93655396 116.97891235 C71.42886256 112.9398242 71.08409091 109.09185675 71.03686523 104.43481445 C71.04226822 103.42467789 71.0476712 102.41454132 71.05323792 101.37379456 C71.0657503 98.03324124 71.04921804 94.69354545 71.03125 91.35302734 C71.03140492 89.034225 71.03289268 86.7154224 71.03565979 84.3966217 C71.03704487 79.53684036 71.0244661 74.67735376 71.00170898 69.81762695 C70.97330855 63.58062617 70.97606466 57.34411468 70.9887991 51.1070776 C70.99574514 46.31933901 70.9879795 41.53171403 70.97554207 36.74398994 C70.97101824 34.44382729 70.97069886 32.14365248 70.97460747 29.84348869 C70.97750951 26.63278963 70.96106101 23.42277136 70.93920898 20.2121582 C70.94371063 19.2567514 70.94821228 18.3013446 70.95285034 17.31698608 C70.94294571 16.44357071 70.93304108 15.57015533 70.9228363 14.67027283 C70.92040641 13.91130172 70.91797651 13.15233061 70.91547298 12.37036037 C70.42650503 9.82190317 69.59174671 8.93400333 67.53515625 7.38818359 C64.2960574 6.93643644 64.2960574 6.93643644 60.52514648 7.01586914 C59.46129227 7.01039314 59.46129227 7.01039314 58.37594604 7.00480652 C56.03163714 6.99670037 53.68801924 7.01030969 51.34375 7.02490234 C49.71615092 7.02542089 48.08855122 7.02490341 46.46095276 7.02339172 C43.05045214 7.02348145 39.64018791 7.03391178 36.22973633 7.05200195 C31.8524024 7.07470723 27.4754134 7.07523002 23.09803677 7.06848431 C19.73778706 7.0651475 16.3776164 7.07176865 13.01738167 7.08161354 C11.40299963 7.08546946 9.78860881 7.08661214 8.17422295 7.08502769 C5.92123442 7.08465797 3.66869302 7.09725007 1.41577148 7.11352539 C0.13242416 7.11813278 -1.15092316 7.12274017 -2.47315979 7.12748718 C-5.58055918 7.07519745 -5.58055918 7.07519745 -7.46484375 9.38818359 C-7.7098587 11.81994756 -7.83809296 14.14683244 -7.87890625 16.58349609 C-7.8982724 17.29093964 -7.91763855 17.99838318 -7.93759155 18.7272644 C-7.99742027 20.98911444 -8.04378476 23.25101529 -8.08984375 25.51318359 C-8.12802061 27.04575799 -8.16707217 28.57831088 -8.20703125 30.11083984 C-8.30312414 33.86977983 -8.38714224 37.62882027 -8.46484375 41.38818359 C-10.77484375 41.38818359 -13.08484375 41.38818359 -15.46484375 41.38818359 C-15.5392113 36.7800649 -15.59354769 32.17229845 -15.62963867 27.5637207 C-15.64468997 25.99725252 -15.66513582 24.43082623 -15.69116211 22.86450195 C-15.72770808 20.60796753 -15.74460636 18.35199206 -15.7578125 16.09521484 C-15.77329636 15.39918655 -15.78878021 14.70315826 -15.80473328 13.98603821 C-15.80624234 9.58853864 -15.25664158 6.82047281 -12.46484375 3.38818359 C-8.40148418 0.33230532 -4.93259884 -0.0437399 0 0 Z " fill="#F6FAF7" transform="translate(178.46484375,64.61181640625)"/>
<path d="M0 0 C1.34384766 0.92619141 1.34384766 0.92619141 2.71484375 1.87109375 C22.60514999 14.76076902 52.45449198 12.18812556 75 10 C75.4434375 10.96292969 75.886875 11.92585937 76.34375 12.91796875 C77.70645068 16.14346811 77.70645068 16.14346811 80.5 17.3125 C85.30844873 18.25701672 90.11472976 18.66967924 95 19 C95.2421875 23.6875 95.2421875 23.6875 93.0625 26.5 C77.15689801 39.48416489 54.63145272 39.42049229 35 38 C22.31861426 36.37169611 9.36267427 34.36267427 0 25 C-0.08737645 23.14630389 -0.10698153 21.28932459 -0.09765625 19.43359375 C-0.09443359 18.30888672 -0.09121094 17.18417969 -0.08789062 16.02539062 C-0.07951172 14.84138672 -0.07113281 13.65738281 -0.0625 12.4375 C-0.05798828 11.24962891 -0.05347656 10.06175781 -0.04882812 8.83789062 C-0.03699675 5.89187774 -0.02051287 2.94596319 0 0 Z " fill="#1E3A63" transform="translate(52,118)"/>
<path d="M0 0 C0.99 0 1.98 0 3 0 C4.98046875 2.08984375 4.98046875 2.08984375 7.1875 4.9375 C10.78801423 9.51782629 14.53514212 13.82319889 18.56640625 18.02734375 C20 20 20 20 20 24 C17.03 24 14.06 24 11 24 C11.00785522 25.17357056 11.00785522 25.17357056 11.01586914 26.37084961 C11.03657106 29.89305833 11.04963838 33.4152543 11.0625 36.9375 C11.07087891 38.16919922 11.07925781 39.40089844 11.08789062 40.66992188 C11.09272461 42.4246582 11.09272461 42.4246582 11.09765625 44.21484375 C11.10551147 45.84087524 11.10551147 45.84087524 11.11352539 47.49975586 C11 50 11 50 10 51 C7.15664952 51.09986975 4.34302837 51.13877881 1.5 51.125 C0.30310547 51.13080078 0.30310547 51.13080078 -0.91796875 51.13671875 C-6.87339233 51.12660767 -6.87339233 51.12660767 -8 50 C-8.08748207 48.07332493 -8.10697334 46.14348139 -8.09765625 44.21484375 C-8.09443359 43.04501953 -8.09121094 41.87519531 -8.08789062 40.66992188 C-8.07951172 39.43822266 -8.07113281 38.20652344 -8.0625 36.9375 C-8.05798828 35.70193359 -8.05347656 34.46636719 -8.04882812 33.19335938 C-8.03699608 30.12885883 -8.02051173 27.06445279 -8 24 C-10.97 24 -13.94 24 -17 24 C-17.33 22.68 -17.66 21.36 -18 20 C-16.15625 17.484375 -16.15625 17.484375 -13.5 14.75 C-12.57355295 13.77928083 -11.64777618 12.80792153 -10.72265625 11.8359375 C-9.82417969 10.90007812 -8.92570313 9.96421875 -8 9 C-6.63539959 7.46756103 -5.27957118 5.92720759 -3.9375 4.375 C-1.07692308 1.07692308 -1.07692308 1.07692308 0 0 Z " fill="#FAFCF9" transform="translate(209,101)"/>
<path d="M0 0 C3.67273442 0.44326105 4.74765247 1.88080023 7.21875 4.578125 C9.68017421 7.19980888 11.93155536 9.49315773 14.78125 11.703125 C15.7403125 12.5075 15.7403125 12.5075 16.71875 13.328125 C16.71875 14.318125 16.71875 15.308125 16.71875 16.328125 C14.9609375 17.9765625 14.9609375 17.9765625 12.59375 19.703125 C9.73652008 21.81128522 7.01814653 23.92437447 4.40625 26.328125 C1.71875 28.328125 1.71875 28.328125 -0.65625 28.140625 C-1.1925 27.8725 -1.72875 27.604375 -2.28125 27.328125 C-2.61125 25.018125 -2.94125 22.708125 -3.28125 20.328125 C-4.14927246 20.31354248 -5.01729492 20.29895996 -5.91162109 20.28393555 C-9.12863879 20.22292389 -12.34500663 20.14878109 -15.56152344 20.06567383 C-16.95431089 20.03239627 -18.34723411 20.00437303 -19.74023438 19.98168945 C-21.74116378 19.94819811 -23.74171921 19.89431195 -25.7421875 19.83984375 C-26.94665527 19.81365967 -28.15112305 19.78747559 -29.39208984 19.76049805 C-30.3455127 19.61781494 -31.29893555 19.47513184 -32.28125 19.328125 C-34.43627531 16.09558704 -34.74981135 15.07661577 -34.28125 11.328125 C-33.1628418 9.69018555 -33.1628418 9.69018555 -31.28125 8.328125 C-28.37036133 7.98754883 -28.37036133 7.98754883 -24.86328125 8.03515625 C-23.60966797 8.04482422 -22.35605469 8.05449219 -21.06445312 8.06445312 C-19.75412109 8.08958984 -18.44378906 8.11472656 -17.09375 8.140625 C-15.75847837 8.15567533 -14.42319063 8.16936313 -13.08789062 8.18164062 C-9.81860424 8.21704806 -6.55012907 8.2664361 -3.28125 8.328125 C-3.3121875 6.6265625 -3.3121875 6.6265625 -3.34375 4.890625 C-3.26619157 0.46979468 -3.26619157 0.46979468 0 0 Z " fill="#F6FBFA" transform="translate(166.28125,111.671875)"/>
<path d="M0 0 C2.5 0.125 2.5 0.125 3.5 1.125 C3.5 5.085 3.5 9.045 3.5 13.125 C16.04 13.125 28.58 13.125 41.5 13.125 C41.5 8.835 41.5 4.545 41.5 0.125 C43.81 0.125 46.12 0.125 48.5 0.125 C48.5 6.725 48.5 13.325 48.5 20.125 C31.34 20.125 14.18 20.125 -3.5 20.125 C-3.5 0.175 -3.5 0.175 0 0 Z " fill="#F8FBF7" transform="translate(187.5,148.875)"/>
<path d="M0 0 C3.19183246 -0.28163228 4.75661949 -0.14067739 7.57225227 1.48679829 C12.08074793 3.47710326 15.84665876 3.42483491 20.71896362 3.39872742 C22.17835631 3.40869766 22.17835631 3.40869766 23.66723168 3.41886932 C26.92393168 3.43750627 30.18026451 3.4348935 33.43701172 3.43237305 C35.77284769 3.44138975 38.10867892 3.45171675 40.44450378 3.46325684 C46.78486782 3.49086348 53.12514217 3.50011639 59.46555853 3.50611091 C65.42064255 3.51453525 71.37566228 3.53666279 77.330709 3.55872939 C89.12377538 3.60198294 100.91683649 3.63195785 112.70996094 3.65356445 C124.16408884 3.67457844 135.61817365 3.70185719 147.07226562 3.73754883 C148.13177804 3.74084707 148.13177804 3.74084707 149.21269475 3.74421193 C152.75629616 3.75528169 156.29989716 3.76647448 159.84349799 3.77772844 C189.22895769 3.87089325 218.61444936 3.94227909 248 4 C248 4.33 248 4.66 248 5 C203.03659765 6.20601582 158.07277107 6.18794662 113.0966351 6.18511021 C104.81569032 6.18546582 96.53478718 6.19715479 88.25385559 6.2110464 C80.16354317 6.22412478 72.07324938 6.2294871 63.98292649 6.22884732 C59.19458925 6.22859413 54.40630357 6.23135139 49.61797714 6.24202538 C45.15384536 6.25172137 40.6898148 6.25177543 36.2256794 6.24450874 C34.59792621 6.24346759 32.97016659 6.24579773 31.34242439 6.2518692 C20.23613838 6.29060948 10.17494878 5.86627985 0 1 C0 0.67 0 0.34 0 0 Z " fill="#A2D1C4" transform="translate(21,252)"/>
<path d="M0 0 C0.85127868 3.12423387 1.0198876 5.45902706 0.625 8.6875 C0.53476562 9.47511719 0.44453125 10.26273438 0.3515625 11.07421875 C0 13 0 13 -1 14 C-1.11003271 16.39027021 -1.15495586 18.75227342 -1.15821838 21.14356995 C-1.16315636 21.89988156 -1.16809434 22.65619317 -1.17318195 23.43542331 C-1.18863279 25.98892896 -1.19693797 28.54240933 -1.20532227 31.09594727 C-1.21489484 32.91873398 -1.22490454 34.74151845 -1.23532104 36.56430054 C-1.26244347 41.52894469 -1.28341317 46.49359842 -1.30332303 51.45827603 C-1.32513749 56.64065388 -1.35254831 61.82300197 -1.37937927 67.00535583 C-1.42936775 76.82615401 -1.47428366 86.64696865 -1.51740164 96.46779913 C-1.56672153 107.6453802 -1.62165906 118.82293141 -1.67708123 130.00048363 C-1.79099572 153.00029459 -1.89781404 176.00013416 -2 199 C-2.33 199 -2.66 199 -3 199 C-3.07015295 174.67784368 -3.12301899 150.35570258 -3.15543652 126.03346539 C-3.17089016 114.73964234 -3.19195095 103.44588224 -3.22631836 92.15209961 C-3.25626671 82.30578897 -3.27558592 72.45952394 -3.28226548 62.61316901 C-3.28616852 57.40200994 -3.29530991 52.1909813 -3.31719017 46.97986412 C-3.3376412 42.06907973 -3.34381643 37.1584788 -3.33932304 32.24765587 C-3.3401444 30.45103964 -3.34605848 28.65441691 -3.35761642 26.85783768 C-3.41503909 17.46671899 -3.28424105 8.94942355 0 0 Z " fill="#BADFED" transform="translate(3,23)"/>
<path d="M0 0 C0.66 0.33 1.32 0.66 2 1 C2 34.33 2 67.66 2 102 C-0.99416924 99.00583076 -1.13119375 96.37015833 -1.22119141 92.32128906 C-1.24431396 91.36495575 -1.26743652 90.40862244 -1.29125977 89.42330933 C-1.31115967 88.3812735 -1.33105957 87.33923767 -1.3515625 86.265625 C-1.37516846 85.17565216 -1.39877441 84.08567932 -1.4230957 82.962677 C-1.49706066 79.39187988 -1.56205041 75.82100745 -1.625 72.25 C-1.64745789 71.04047668 -1.66991577 69.83095337 -1.6930542 68.58477783 C-1.98209563 52.50581623 -2.06137006 36.45142074 -1.625 20.375 C-1.60367004 19.55471313 -1.58234009 18.73442627 -1.56036377 17.88928223 C-1.17690215 3.84326474 -1.17690215 3.84326474 0 0 Z " fill="#80C5DB" transform="translate(45,76)"/>
<path d="M0 0 C0.71244873 -0.00043808 1.42489746 -0.00087616 2.15893555 -0.00132751 C4.5128931 0.00076187 6.86613764 0.02409903 9.2199707 0.04760742 C10.85235708 0.05320287 12.4847485 0.05747321 14.11714172 0.06047058 C18.41299353 0.07192347 22.70854091 0.1013943 27.00427246 0.13458252 C31.38797894 0.16527393 35.77173462 0.17897392 40.15551758 0.1940918 C48.75656872 0.22626373 57.35737246 0.27746524 65.95825195 0.34057617 C65.95825195 0.67057617 65.95825195 1.00057617 65.95825195 1.34057617 C65.07542038 1.34644241 64.19258881 1.35230865 63.28300476 1.35835266 C54.96913793 1.41622087 46.65554145 1.48826354 38.34193707 1.57629108 C34.06765815 1.62104705 29.7934757 1.66029141 25.51904297 1.68701172 C21.39509773 1.7129929 17.2715227 1.75335786 13.14780617 1.80376244 C11.57336845 1.82046641 9.99886664 1.83195867 8.42435265 1.83819008 C6.22130767 1.84779323 4.01921733 1.87580461 1.81640625 1.90820312 C-0.06556206 1.92485771 -0.06556206 1.92485771 -1.98554993 1.94184875 C-5.00444273 2.09640524 -5.00444273 2.09640524 -6.94512939 3.6706543 C-9.62530894 7.7520097 -8.51580806 14.01296484 -8.48779297 18.79931641 C-8.4793423 21.00349144 -8.50794002 23.2050206 -8.53979492 25.40893555 C-8.57505712 33.04217062 -8.06930629 38.66092437 -4.04174805 45.34057617 C-4.37174805 46.33057617 -4.70174805 47.32057617 -5.04174805 48.34057617 C-5.92862305 47.37120117 -6.81549805 46.40182617 -7.72924805 45.40307617 C-10.36790014 42.73935375 -12.1850652 41.56743987 -16.04174805 41.34057617 C-15.05174805 40.68057617 -14.06174805 40.02057617 -13.04174805 39.34057617 C-12.71174805 38.35057617 -12.38174805 37.36057617 -12.04174805 36.34057617 C-13.69174805 36.34057617 -15.34174805 36.34057617 -17.04174805 36.34057617 C-17.04174805 36.01057617 -17.04174805 35.68057617 -17.04174805 35.34057617 C-14.73174805 35.34057617 -12.42174805 35.34057617 -10.04174805 35.34057617 C-10.0574585 34.38691162 -10.07316895 33.43324707 -10.08935547 32.45068359 C-10.14366483 28.91170705 -10.17810138 25.37276732 -10.20654297 21.83349609 C-10.22162741 20.30185756 -10.24209783 18.7702622 -10.26806641 17.23876953 C-10.30446652 15.03691963 -10.32147718 12.83564084 -10.3347168 10.63354492 C-10.35020065 9.94906784 -10.36568451 9.26459076 -10.38163757 8.55937195 C-10.38329586 3.87242978 -10.38329586 3.87242978 -8.96057129 1.65698242 C-6.02418237 -0.35752347 -3.52893677 -0.0182217 0 0 Z " fill="#91C885" transform="translate(180.041748046875,70.659423828125)"/>
<path d="M0 0 C0.66 0 1.32 0 2 0 C2.89916992 2.15356445 2.89916992 2.15356445 3 5 C0.2824707 7.61791992 0.2824707 7.61791992 -1.49531555 9.02766418 C-6.27913516 12.8602387 -10.13727175 16.45061413 -11.07666016 22.70947266 C-11.43286379 27.92752339 -11.1409576 33.10055958 -10.8125 38.3125 C-10.74714309 40.13195218 -10.68785347 41.95163288 -10.63476562 43.77148438 C-10.49294099 48.18673539 -10.26961344 52.59078334 -10 57 C-10.66 56.67 -11.32 56.34 -12 56 C-12 42.8 -12 29.6 -12 16 C-12.66 15.67 -13.32 15.34 -14 15 C-11.87996003 13.16064138 -9.75442773 11.32843267 -7.625 9.5 C-7.02171875 8.97535156 -6.4184375 8.45070312 -5.796875 7.91015625 C-1.2265625 4 -1.2265625 4 1 4 C0.67 2.68 0.34 1.36 0 0 Z " fill="#7ABE7A" transform="translate(182,124)"/>
<path d="M0 0 C3.19838451 -0.2822104 4.7685907 -0.13225467 7.59780884 1.48469543 C11.97893551 3.43600885 15.57123402 3.44030476 20.31005859 3.43237305 C21.22777039 3.4425647 22.14548218 3.45275635 23.09100342 3.46325684 C26.11021061 3.49333817 29.12910026 3.50264544 32.1484375 3.51171875 C34.247376 3.52856902 36.34630443 3.54671973 38.44522095 3.56611633 C43.95905409 3.61358451 49.4728464 3.64341459 54.98681641 3.66955566 C60.61759504 3.69937712 66.24823304 3.74590206 71.87890625 3.79101562 C82.91919722 3.87701263 93.95951716 3.94437406 105 4 C105 4.33 105 4.66 105 5 C92.78631108 5.09288617 80.57270691 5.16385951 68.35873604 5.20724869 C62.68662112 5.22807863 57.01474878 5.25631241 51.34277344 5.30175781 C45.8638459 5.34537924 40.38515095 5.36917163 34.90606308 5.37950897 C32.82097592 5.38687112 30.73590076 5.40124745 28.65091324 5.42292023 C25.71898639 5.45217074 22.78800747 5.45594697 19.85595703 5.45410156 C19.00358963 5.46848267 18.15122223 5.48286377 17.27302551 5.49768066 C10.84344738 5.45419963 5.80171617 3.70715699 0 1 C0 0.67 0 0.34 0 0 Z " fill="#6CBBC4" transform="translate(21,252)"/>
<path d="M0 0 C0.85127868 3.12423387 1.0198876 5.45902706 0.625 8.6875 C0.53476562 9.47511719 0.44453125 10.26273438 0.3515625 11.07421875 C0 13 0 13 -1 14 C-1.15996166 16.59153107 -1.25938697 19.1595202 -1.31640625 21.75390625 C-1.33718735 22.52935287 -1.35796844 23.3047995 -1.37937927 24.10374451 C-1.44495802 26.58990308 -1.50379799 29.07617045 -1.5625 31.5625 C-1.60567733 33.24415204 -1.64929136 34.92579294 -1.69335938 36.60742188 C-1.80064779 40.73816871 -1.90189132 44.86902536 -2 49 C-2.33 49 -2.66 49 -3 49 C-3.07485565 43.78966314 -3.12893126 38.5796479 -3.16479492 33.36889648 C-3.17976535 31.60093728 -3.20014903 29.83301445 -3.22631836 28.06518555 C-3.49791465 9.22918405 -3.49791465 9.22918405 0 0 Z " fill="#A0D6E8" transform="translate(3,23)"/>
<path d="M0 0 C3.22404825 -0.28447485 4.81323052 -0.10266731 7.69189453 1.47973633 C11.48552493 3.22312647 14.71155784 3.47386084 18.8046875 3.51171875 C19.5286673 3.52966995 20.25264709 3.54762115 20.99856567 3.56611633 C23.29065277 3.61991138 25.58253541 3.65401402 27.875 3.6875 C29.43752827 3.72070049 31.00002966 3.75519266 32.5625 3.79101562 C36.37485169 3.87561923 40.187146 3.94257559 44 4 C44 4.33 44 4.66 44 5 C39.3410447 5.09982927 34.68272922 5.17191433 30.02294922 5.21972656 C28.44210955 5.23968422 26.86134217 5.2668606 25.28076172 5.30175781 C16.10838511 5.49901322 8.27532423 5.57191691 0 1 C0 0.67 0 0.34 0 0 Z " fill="#6BBBD4" transform="translate(21,252)"/>
<path d="M0 0 C2.97 0.495 2.97 0.495 6 1 C5.67 3.31 5.34 5.62 5 8 C3.33388095 8.042721 1.66617115 8.04063832 0 8 C-0.33 7.67 -0.66 7.34 -1 7 C-0.71269945 4.66055264 -0.38063221 2.3260857 0 0 Z " fill="#DDEEF4" transform="translate(60,100)"/>
<path d="M0 0 C2.625 0.375 2.625 0.375 5 1 C5.042721 2.66611905 5.04063832 4.33382885 5 6 C4 7 4 7 1.4375 7.0625 C0.2309375 7.0315625 0.2309375 7.0315625 -1 7 C-1.625 4.625 -1.625 4.625 -2 2 C-1.34 1.34 -0.68 0.68 0 0 Z " fill="#DCDFE5" transform="translate(71,136)"/>
<path d="M0 0 C0 1.98 0 3.96 0 6 C-2.375 6.125 -2.375 6.125 -5 6 C-5.66 5.34 -6.32 4.68 -7 4 C-7 2.68 -7 1.36 -7 0 C-4.3333581 -1.33332095 -2.83319697 -0.67102033 0 0 Z " fill="#E1F0F5" transform="translate(76,105)"/>
<path d="M0 0 C1.67542976 0.28604898 3.34385343 0.61781233 5 1 C5 2.98 5 4.96 5 7 C3.02 7 1.04 7 -1 7 C-1.04254356 5.00045254 -1.04080783 2.99958364 -1 1 C-0.67 0.67 -0.34 0.34 0 0 Z " fill="#C0C5CE" transform="translate(71,168)"/>
<path d="M0 0 C0.66 0.33 1.32 0.66 2 1 C-0.10182301 2.96090192 -2.20632283 4.91878444 -4.3125 6.875 C-5.20485352 7.70837891 -5.20485352 7.70837891 -6.11523438 8.55859375 C-6.69208984 9.09355469 -7.26894531 9.62851563 -7.86328125 10.1796875 C-8.39219971 10.67194824 -8.92111816 11.16420898 -9.46606445 11.67138672 C-11 13 -11 13 -14 15 C-12.28494519 8.7114657 -7.32790946 4.65540228 -2.1875 1 C-1.465625 0.67 -0.74375 0.34 0 0 Z " fill="#77C8E1" transform="translate(20,5)"/>
<path d="M0 0 C1.67542976 0.28604898 3.34385343 0.61781233 5 1 C5 2.65 5 4.3 5 6 C3.34385343 6.38218767 1.67542976 6.71395102 0 7 C-1 6 -1 6 -1.125 3.5 C-1 1 -1 1 0 0 Z " fill="#D1D6DD" transform="translate(60,165)"/>
<path d="M0 0 C1.98 0.99 3.96 1.98 6 3 C3 5 3 5 1 5 C1 11.27 1 17.54 1 24 C0.67 24 0.34 24 0 24 C0 16.08 0 8.16 0 0 Z " fill="#3C5076" transform="translate(52,151)"/>
<path d="M0 0 C-1.59720719 4.3124594 -4.31633819 6.42143673 -8 9 C-10.1953125 8.63671875 -10.1953125 8.63671875 -12 8 C-10.57084149 6.65772954 -9.13137328 5.32642904 -7.6875 4 C-6.48673828 2.88625 -6.48673828 2.88625 -5.26171875 1.75 C-3 0 -3 0 0 0 Z " fill="#79BB91" transform="translate(180,131)"/>
<path d="M0 0 C1.2065625 0.0309375 1.2065625 0.0309375 2.4375 0.0625 C2.4375 1.7125 2.4375 3.3625 2.4375 5.0625 C0.7875 5.3925 -0.8625 5.7225 -2.5625 6.0625 C-2.94468767 4.40635343 -3.27645102 2.73792976 -3.5625 1.0625 C-2.5625 0.0625 -2.5625 0.0625 0 0 Z " fill="#DEE2E4" transform="translate(62.5625,132.9375)"/>
<path d="M0 0 C2.31 0 4.62 0 7 0 C7.66 2.97 8.32 5.94 9 9 C8.01 8.34 7.02 7.68 6 7 C4.34450469 6.61500109 2.6777567 6.27206865 1 6 C1.99 5.34 2.98 4.68 4 4 C4.33 3.01 4.66 2.02 5 1 C3.35 1 1.7 1 0 1 C0 0.67 0 0.34 0 0 Z " fill="#82C1AA" transform="translate(163,106)"/>
<path d="M0 0 C0.66 0.33 1.32 0.66 2 1 C1.50628906 1.37511719 1.01257812 1.75023438 0.50390625 2.13671875 C-3.62913755 5.3284978 -3.62913755 5.3284978 -5.9375 9.875 C-5.958125 10.57625 -5.97875 11.2775 -6 12 C-6.33 12 -6.66 12 -7 12 C-7.3125 9.3125 -7.3125 9.3125 -7 6 C-4.827365 3.42714276 -3.02006162 1.51003081 0 0 Z " fill="#405A7E" transform="translate(59,73)"/>
<path d="M0 0 C0.66 0 1.32 0 2 0 C4.11161731 9.41002278 4.11161731 9.41002278 5 14 C1.37892551 9.55595403 -0.33060893 5.78565632 0 0 Z " fill="#79C2DC" transform="translate(1,223)"/>
<path d="M0 0 C2.86979527 2.70857081 4.47187995 5.33251188 6 9 C5.67 9.99 5.34 10.98 5 12 C2.2289312 9.65408148 1.47940716 7.85223799 0.8125 4.3125 C0.65394531 3.50425781 0.49539062 2.69601563 0.33203125 1.86328125 C0.22246094 1.24839844 0.11289063 0.63351563 0 0 Z " fill="#7FBE87" transform="translate(170,107)"/>
<path d="M0 0 C5.27323808 -0.68041782 9.39388711 1.75213663 14 4 C10.30962722 5.37095624 8.29116165 4.60010967 4.75 3.0625 C3.85796875 2.68222656 2.9659375 2.30195313 2.046875 1.91015625 C1.37140625 1.60980469 0.6959375 1.30945313 0 1 C0 0.67 0 0.34 0 0 Z " fill="#82C8E1" transform="translate(21,252)"/>
<path d="M0 0 C1.65 0 3.3 0 5 0 C5 1.32 5 2.64 5 4 C3.35 4 1.7 4 0 4 C0 2.68 0 1.36 0 0 Z " fill="#F5F7F8" transform="translate(70,170)"/>
</svg>
